<svg width="26" height="26" viewBox="0 0 26 26" fill="none" xmlns="http://www.w3.org/2000/svg">
<path d="M25 10.8405H23.7213C23.5228 8.13264 22.3071 5.60021 20.3183 3.75186C18.3296 1.9035 15.7151 0.876137 13 0.876137C10.2849 0.876137 7.67042 1.9035 5.68165 3.75186C3.69289 5.60021 2.47719 8.13264 2.27875 10.8405H1C0.801088 10.8405 0.610322 10.9195 0.46967 11.0601C0.329018 11.2008 0.25 11.3915 0.25 11.5905C0.25446 13.9486 0.910563 16.2596 2.14585 18.2682C3.38114 20.2769 5.14755 21.9051 7.25 22.973V23.5905C7.25 24.0546 7.43437 24.4997 7.76256 24.8279C8.09075 25.1561 8.53587 25.3405 9 25.3405H17C17.4641 25.3405 17.9092 25.1561 18.2374 24.8279C18.5656 24.4997 18.75 24.0546 18.75 23.5905V22.973C20.8525 21.9051 22.6189 20.2769 23.8541 18.2682C25.0894 16.2596 25.7455 13.9486 25.75 11.5905C25.75 11.3915 25.671 11.2008 25.5303 11.0601C25.3897 10.9195 25.1989 10.8405 25 10.8405ZM18.78 4.3767C19.1429 4.66737 19.4835 4.98493 19.7987 5.3267C18.4066 5.76004 17.1172 6.4724 16.0094 7.42036C14.9015 8.36832 13.9984 9.53201 13.355 10.8405H9.1675C9.75819 8.95918 10.9328 7.31495 12.5209 6.14622C14.109 4.97748 16.0282 4.34498 18 4.34045C18.26 4.34045 18.5212 4.3542 18.78 4.3767ZM20.7875 6.60795C21.6052 7.87962 22.0964 9.33344 22.2175 10.8405H15.06C15.6871 9.79103 16.5162 8.87653 17.4994 8.14998C18.4826 7.42343 19.6002 6.89929 20.7875 6.60795ZM13 2.34045C14.1458 2.33858 15.2819 2.55055 16.35 2.96545C14.2869 3.29112 12.3627 4.20855 10.8109 5.60642C9.25901 7.00429 8.14621 8.82251 7.6075 10.8405H3.7825C3.97339 8.52599 5.02684 6.36772 6.73407 4.79338C8.44129 3.21905 10.6777 2.34357 13 2.34045ZM17.6875 21.8205C17.5568 21.8803 17.4462 21.9765 17.3686 22.0975C17.291 22.2185 17.2499 22.3592 17.25 22.503V23.5905C17.25 23.6568 17.2237 23.7203 17.1768 23.7672C17.1299 23.8141 17.0663 23.8405 17 23.8405H9C8.9337 23.8405 8.87011 23.8141 8.82322 23.7672C8.77634 23.7203 8.75 23.6568 8.75 23.5905V22.503C8.75014 22.3592 8.70897 22.2185 8.63141 22.0975C8.55385 21.9765 8.44315 21.8803 8.3125 21.8205C6.47265 20.972 4.89493 19.6442 3.74472 17.9763C2.59451 16.3084 1.91416 14.3617 1.775 12.3405H24.225C24.0858 14.3617 23.4055 16.3084 22.2553 17.9763C21.1051 19.6442 19.5273 20.972 17.6875 21.8205Z" fill="#F21E84"/>
</svg>
